<svg xmlns="http://www.w3.org/2000/svg" width="20.563" height="21.656" viewBox="0 0 20.563 21.656">
  <path id="icon-progress28" d="M12.141-21.109A2.531,2.531,0,0,1,14-21.875a2.531,2.531,0,0,1,1.859.766,2.531,2.531,0,0,1,.766,1.859,2.531,2.531,0,0,1-.766,1.859A2.531,2.531,0,0,1,14-16.625a2.531,2.531,0,0,1-1.859-.766,2.531,2.531,0,0,1-.766-1.859A2.531,2.531,0,0,1,12.141-21.109ZM6.262-18.238a2.117,2.117,0,0,1,1.559-.629,2.117,2.117,0,0,1,1.559.629,2.117,2.117,0,0,1,.629,1.559,2.117,2.117,0,0,1-.629,1.559,2.117,2.117,0,0,1-1.559.629,2.117,2.117,0,0,1-1.559-.629,2.117,2.117,0,0,1-.629-1.559A2.117,2.117,0,0,1,6.262-18.238Zm13.289.93a.852.852,0,0,1,.629-.246.852.852,0,0,1,.629.246.852.852,0,0,1,.246.629.852.852,0,0,1-.246.629.852.852,0,0,1-.629.246.852.852,0,0,1-.629-.246.852.852,0,0,1-.246-.629A.852.852,0,0,1,19.551-17.309Zm-15.7,5.414a1.9,1.9,0,0,1,1.395-.574,1.9,1.9,0,0,1,1.395.574A1.9,1.9,0,0,1,7.219-10.5a1.9,1.9,0,0,1-.574,1.395,1.9,1.9,0,0,1-1.395.574,1.9,1.9,0,0,1-1.395-.574A1.9,1.9,0,0,1,3.281-10.5,1.9,1.9,0,0,1,3.855-11.895Zm18.129.629a1.049,1.049,0,0,1,.766-.328,1.049,1.049,0,0,1,.766.328,1.049,1.049,0,0,1,.328.766,1.049,1.049,0,0,1-.328.766,1.049,1.049,0,0,1-.766.328,1.049,1.049,0,0,1-.766-.328,1.049,1.049,0,0,1-.328-.766A1.049,1.049,0,0,1,21.984-11.266ZM6.59-5.551a1.682,1.682,0,0,1,1.23-.52,1.682,1.682,0,0,1,1.23.52,1.682,1.682,0,0,1,.52,1.23,1.682,1.682,0,0,1-.52,1.23,1.682,1.682,0,0,1-1.23.52,1.682,1.682,0,0,1-1.23-.52,1.682,1.682,0,0,1-.52-1.23A1.682,1.682,0,0,1,6.59-5.551Zm12.66.3a1.266,1.266,0,0,1,.93-.383,1.266,1.266,0,0,1,.93.383,1.266,1.266,0,0,1,.383.93,1.266,1.266,0,0,1-.383.93,1.266,1.266,0,0,1-.93.383,1.266,1.266,0,0,1-.93-.383,1.266,1.266,0,0,1-.383-.93A1.266,1.266,0,0,1,19.25-5.25ZM12.906-2.844A1.484,1.484,0,0,1,14-3.281a1.484,1.484,0,0,1,1.094.438,1.484,1.484,0,0,1,.438,1.094,1.484,1.484,0,0,1-.437,1.094A1.484,1.484,0,0,1,14-.219a1.484,1.484,0,0,1-1.094-.437,1.484,1.484,0,0,1-.437-1.094A1.484,1.484,0,0,1,12.906-2.844Z" transform="translate(-3.281 21.875)" fill="gray"/>
</svg>
