<svg xmlns="http://www.w3.org/2000/svg" width="23.063" height="20.625" viewBox="0 0 23.063 20.625">
  <path id="icon-eye-close" d="M-9.187-19.312l5.063,5.063A12.269,12.269,0,0,1,0-15a11.773,11.773,0,0,1,3.563.563,14.278,14.278,0,0,1,3,1.289,19.761,19.761,0,0,1,2.344,1.641,17.981,17.981,0,0,1,1.523,1.336q.4.422.633.7l.469.516-.469.516A22.142,22.142,0,0,1,5.531-4.547L10.313.188,9.188,1.313,4.078-3.844,2.719-5.25.375-7.547-2.2-10.125l-2.3-2.344-1.125-1.125-4.687-4.594ZM0-13.5a10.181,10.181,0,0,0-2.953.469l1.547,1.547A2.235,2.235,0,0,1,0-12a2.17,2.17,0,0,1,1.594.656A2.17,2.17,0,0,1,2.25-9.75a2.235,2.235,0,0,1-.516,1.406L3.844-6.187A5.14,5.14,0,0,0,5.25-9.75a5.011,5.011,0,0,0-.8-2.719A10.624,10.624,0,0,0,0-13.5Zm-7.031.656,1.922,1.922A5.21,5.21,0,0,0-5.25-9.75,5.033,5.033,0,0,0-3.914-6.258,5.179,5.179,0,0,0-.562-4.547l.047.047H.516l.094-.047q.328-.047.609-.094L2.484-3.375A7.7,7.7,0,0,1,.7-3.047H.656Q.094-3,0-3t-.656-.047H-.7a10.683,10.683,0,0,1-3.07-.7A17.743,17.743,0,0,1-6.539-5.039,22.492,22.492,0,0,1-8.812-6.586q-1.125-.867-1.547-1.242t-.7-.609l-.469-.516.469-.516A16.965,16.965,0,0,1-7.031-12.844Zm.469,1.5a16.522,16.522,0,0,0-2.906,2.3A22.631,22.631,0,0,0-5.859-6.422,6.559,6.559,0,0,1-6.75-9.75,7.359,7.359,0,0,1-6.562-11.344Zm13.125,0A7.359,7.359,0,0,1,6.75-9.75a6.559,6.559,0,0,1-.891,3.328A22.5,22.5,0,0,0,9.422-9,15.178,15.178,0,0,0,6.563-11.344ZM0-10.5a.755.755,0,0,0-.328.094l.984.984A.755.755,0,0,0,.75-9.75a.73.73,0,0,0-.211-.539A.73.73,0,0,0,0-10.5Z" transform="translate(11.531 19.313)" fill="gray"/>
</svg>
