<svg xmlns="http://www.w3.org/2000/svg" width="21.656" height="17.5" viewBox="0 0 21.656 17.5">
  <path id="icon-cart28" d="M3.5-18.375H5.469a1.708,1.708,0,0,1,1.066.355,1.5,1.5,0,0,1,.574.957l2.3,9.188H20.344l2.078-7.875h1.859l-2.3,8.313a1.5,1.5,0,0,1-.574.957,1.708,1.708,0,0,1-1.066.355H9.406A1.708,1.708,0,0,1,8.34-6.48a1.5,1.5,0,0,1-.574-.957l-2.3-9.187H3.5a.852.852,0,0,1-.629-.246.852.852,0,0,1-.246-.629.852.852,0,0,1,.246-.629A.852.852,0,0,1,3.5-18.375ZM17.391-5.359a2.531,2.531,0,0,1,1.859-.766,2.531,2.531,0,0,1,1.859.766A2.531,2.531,0,0,1,21.875-3.5a2.531,2.531,0,0,1-.766,1.859,2.531,2.531,0,0,1-1.859.766,2.531,2.531,0,0,1-1.859-.766A2.531,2.531,0,0,1,16.625-3.5,2.531,2.531,0,0,1,17.391-5.359Zm-7.875,0a2.531,2.531,0,0,1,1.859-.766,2.531,2.531,0,0,1,1.859.766A2.531,2.531,0,0,1,14-3.5a2.531,2.531,0,0,1-.766,1.859,2.531,2.531,0,0,1-1.859.766,2.531,2.531,0,0,1-1.859-.766A2.531,2.531,0,0,1,8.75-3.5,2.531,2.531,0,0,1,9.516-5.359ZM14-18.375h1.75v2.625h2.625V-14H15.75v2.625H14V-14H11.375v-1.75H14ZM12.25-3.5a.773.773,0,0,0-.875-.875A.773.773,0,0,0,10.5-3.5a.773.773,0,0,0,.875.875A.773.773,0,0,0,12.25-3.5Zm7.875,0a.773.773,0,0,0-.875-.875.773.773,0,0,0-.875.875.773.773,0,0,0,.875.875A.773.773,0,0,0,20.125-3.5Z" transform="translate(-2.625 18.375)" fill="gray"/>
</svg>
