<svg xmlns="http://www.w3.org/2000/svg" width="22.531" height="22.531" viewBox="0 0 22.531 22.531">
  <path id="icon-zoom28" d="M10.445-19.3a8.426,8.426,0,0,1,6.18-2.57A8.426,8.426,0,0,1,22.8-19.3a8.426,8.426,0,0,1,2.57,6.18,8.426,8.426,0,0,1-2.57,6.18,8.426,8.426,0,0,1-6.18,2.57A8.475,8.475,0,0,1,11.1-6.344l-6.945,7L2.844-.656l7-6.945a8.475,8.475,0,0,1-1.969-5.523A8.426,8.426,0,0,1,10.445-19.3Zm11.129,1.23a6.744,6.744,0,0,0-4.949-2.051,6.744,6.744,0,0,0-4.949,2.051,6.744,6.744,0,0,0-2.051,4.949,6.744,6.744,0,0,0,2.051,4.949,6.744,6.744,0,0,0,4.949,2.051,6.744,6.744,0,0,0,4.949-2.051,6.744,6.744,0,0,0,2.051-4.949A6.744,6.744,0,0,0,21.574-18.074ZM15.75-16.625H17.5V-14h2.625v1.75H17.5v2.625H15.75V-12.25H13.125V-14H15.75Z" transform="translate(-2.844 21.875)" fill="gray"/>
</svg>
