<svg xmlns="http://www.w3.org/2000/svg" width="23.063" height="12" viewBox="0 0 23.063 12">
  <path id="icon-eye-open" d="M-3.539-14.414A11.421,11.421,0,0,1,0-15a11.629,11.629,0,0,1,3.516.563,13.481,13.481,0,0,1,3.094,1.383q1.313.82,2.344,1.617a17.189,17.189,0,0,1,1.594,1.359l.516.609L11.531-9l-.469.469a7.144,7.144,0,0,1-.516.563q-.328.328-1.406,1.219a20.627,20.627,0,0,1-2.2,1.594A16.089,16.089,0,0,1,4.148-3.82a12.208,12.208,0,0,1-3.3.773A6.853,6.853,0,0,1,0-3a6.853,6.853,0,0,1-.844-.047A12.45,12.45,0,0,1-4.125-3.8,14.53,14.53,0,0,1-6.961-5.18q-1.2-.773-2.156-1.523a16.651,16.651,0,0,1-1.477-1.266l-.469-.562L-11.531-9l.469-.469a7.961,7.961,0,0,1,.563-.609q.375-.375,1.523-1.336A17.465,17.465,0,0,1-6.586-13.1,15.616,15.616,0,0,1-3.539-14.414ZM0-13.5a10.849,10.849,0,0,0-4.547,1.078H-4.5A5,5,0,0,0-5.25-9.75,5.118,5.118,0,0,0-3.914-6.234,5.137,5.137,0,0,0-.562-4.5H.563A5.137,5.137,0,0,0,3.914-6.234,5.118,5.118,0,0,0,5.25-9.75a5.242,5.242,0,0,0-.75-2.719A10.937,10.937,0,0,0,0-13.5Zm-1.594,2.156A2.17,2.17,0,0,1,0-12a2.17,2.17,0,0,1,1.594.656A2.17,2.17,0,0,1,2.25-9.75a2.17,2.17,0,0,1-.656,1.594A2.17,2.17,0,0,1,0-7.5a2.17,2.17,0,0,1-1.594-.656A2.17,2.17,0,0,1-2.25-9.75,2.17,2.17,0,0,1-1.594-11.344Zm-4.969.047A18.386,18.386,0,0,0-9.375-9,17.308,17.308,0,0,0-5.719-6.187,6.418,6.418,0,0,1-6.75-9.75,6.745,6.745,0,0,1-6.562-11.3Zm13.125,0A6.745,6.745,0,0,1,6.75-9.75,6.418,6.418,0,0,1,5.719-6.187,17.309,17.309,0,0,0,9.375-9,18.386,18.386,0,0,0,6.563-11.3Z" transform="translate(11.531 15)" fill="gray"/>
</svg>
