<svg xmlns="http://www.w3.org/2000/svg" width="18.563" height="15" viewBox="0 0 18.563 15">
  <path id="icon-add2cart" d="M3-15.75H4.688a1.464,1.464,0,0,1,.914.3,1.283,1.283,0,0,1,.492.82L8.063-6.75h9.375l1.781-6.75h1.594L18.844-6.375a1.283,1.283,0,0,1-.492.82,1.464,1.464,0,0,1-.914.3H8.063a1.464,1.464,0,0,1-.914-.3,1.283,1.283,0,0,1-.492-.82L4.688-14.25H3a.73.73,0,0,1-.539-.211A.73.73,0,0,1,2.25-15a.73.73,0,0,1,.211-.539A.73.73,0,0,1,3-15.75ZM14.906-4.594A2.17,2.17,0,0,1,16.5-5.25a2.17,2.17,0,0,1,1.594.656A2.17,2.17,0,0,1,18.75-3a2.17,2.17,0,0,1-.656,1.594A2.17,2.17,0,0,1,16.5-.75a2.17,2.17,0,0,1-1.594-.656A2.17,2.17,0,0,1,14.25-3,2.17,2.17,0,0,1,14.906-4.594Zm-6.75,0A2.17,2.17,0,0,1,9.75-5.25a2.17,2.17,0,0,1,1.594.656A2.17,2.17,0,0,1,12-3a2.17,2.17,0,0,1-.656,1.594A2.17,2.17,0,0,1,9.75-.75a2.17,2.17,0,0,1-1.594-.656A2.17,2.17,0,0,1,7.5-3,2.17,2.17,0,0,1,8.156-4.594ZM12-15.75h1.5v2.25h2.25V-12H13.5v2.25H12V-12H9.75v-1.5H12ZM10.5-3a.663.663,0,0,0-.75-.75A.663.663,0,0,0,9-3a.663.663,0,0,0,.75.75A.663.663,0,0,0,10.5-3Zm6.75,0a.663.663,0,0,0-.75-.75.663.663,0,0,0-.75.75.663.663,0,0,0,.75.75A.663.663,0,0,0,17.25-3Z" transform="translate(-2.25 15.75)" fill="#fff"/>
</svg>
