<svg xmlns="http://www.w3.org/2000/svg" width="22.75" height="22.75" viewBox="0 0 22.75 22.75">
  <path id="icon-done28" d="M14-21.875a10.714,10.714,0,0,1,7.875,3.227l-1.2,1.258A9.078,9.078,0,0,0,14-20.125a9.276,9.276,0,0,0-6.809,2.816A9.276,9.276,0,0,0,4.375-10.5,9.276,9.276,0,0,0,7.191-3.691,9.276,9.276,0,0,0,14-.875a9.276,9.276,0,0,0,6.809-2.816A9.276,9.276,0,0,0,23.625-10.5a8.989,8.989,0,0,0-.273-2.187l1.422-1.422a10.125,10.125,0,0,1,.6,3.609,10.957,10.957,0,0,1-3.336,8.039A10.957,10.957,0,0,1,14,.875,10.957,10.957,0,0,1,5.961-2.461,10.957,10.957,0,0,1,2.625-10.5a10.957,10.957,0,0,1,3.336-8.039A10.957,10.957,0,0,1,14-21.875Zm9.844,3.719,1.313,1.313-10.5,10.5L14-5.8l-.656-.547L8.969-10.719l1.313-1.312L14-8.258Z" transform="translate(-2.625 21.875)" fill="gray"/>
</svg>
