<svg xmlns="http://www.w3.org/2000/svg" width="12.578" height="11.922" viewBox="0 0 12.578 11.922">
  <path id="star-empty12" d="M7-11.32l.383.9L8.8-7.219l3.5.355.984.109-.766.656L9.953-3.773l.711,3.445.219.93L10.008.109,7-1.641,3.992.109,3.117.6l.219-.93.711-3.445L1.477-6.1.711-6.754,1.7-6.863l3.5-.355,1.422-3.2ZM7-9.187,5.879-6.645,5.77-6.4H5.523l-2.734.3L4.813-4.266l.219.191-.055.246-.6,2.68L6.781-2.516,7-2.625l.219.109L9.625-1.148l-.6-2.68-.055-.246.219-.191L11.211-6.1,8.477-6.4H8.23l-.109-.246Z" transform="translate(-0.711 11.32)" fill="gray"/>
</svg>
