<svg xmlns="http://www.w3.org/2000/svg" width="14.375" height="13.625" viewBox="0 0 14.375 13.625">
  <path id="star-empty" d="M-8-12.937l.438,1.031L-5.937-8.25l4,.406,1.125.125-.875.75L-4.625-4.312l.813,3.938.25,1.063-1-.562L-8-1.875l-3.437,2-1,.563.25-1.062.813-3.937-2.937-2.656-.875-.75,1.125-.125,4-.406,1.625-3.656ZM-8-10.5-9.281-7.594l-.125.281h-.281l-3.125.344L-10.5-4.875l.25.219-.062.281L-11-1.312l2.75-1.562L-8-3l.25.125L-5-1.312l-.687-3.062-.062-.281.25-.219,2.313-2.094-3.125-.344h-.281l-.125-.281Z" transform="translate(15.188 12.938)" fill="#404040"/>
</svg>
