<svg xmlns="http://www.w3.org/2000/svg" width="100" height="100" viewBox="0 0 100 100">
  <path id="_500px-square" data-name="500px-square" d="M90-1080H10a10.011,10.011,0,0,1-10-10v-80a10.011,10.011,0,0,1,10-10H90a10.011,10.011,0,0,1,10,10v80A10.011,10.011,0,0,1,90-1080Zm-66.308-42.306a3.457,3.457,0,0,0-2.442.871.891.891,0,0,0-.242.726C23.273-1104.344,37.815-1092,54.834-1092a33.7,33.7,0,0,0,24.224-10.256,1.25,1.25,0,0,0,.036-1.38,3.409,3.409,0,0,0-2.494-2,.949.949,0,0,0-.691.276,30.014,30.014,0,0,1-21.3,8.958,29.493,29.493,0,0,1-9.686-1.629,29.081,29.081,0,0,1-8.673-4.784,30.882,30.882,0,0,1-10.851-18.4.923.923,0,0,0-.454-.8A2.368,2.368,0,0,0,23.692-1122.306Zm10.7,2.432a5.11,5.11,0,0,0-1.424.291c-1.025.344-1.518.657-1.7,1.078-.224.516.007,1.2.575,2.436a23.5,23.5,0,0,0,22.373,14.832c12.023,0,24.8-8.547,24.8-24.385,0-15.394-12.631-24.593-24.842-24.593a24.952,24.952,0,0,0-18.179,8.027h-.046v-20.218H69.9c1.263,0,1.263-1.729,1.263-2.3,0-1.525-.425-2.3-1.263-2.3H33.194a1.6,1.6,0,0,0-1.6,1.6v28.417c0,.93,1.172,1.549,2.175,1.8a5.687,5.687,0,0,0,1.2.149,1.958,1.958,0,0,0,1.851-1.065l.009-.013.076-.091a48.313,48.313,0,0,1,3.225-3.636,19.967,19.967,0,0,1,14.224-5.857,19.927,19.927,0,0,1,14.193,5.857,20,20,0,0,1,5.9,14.193,19.876,19.876,0,0,1-5.857,14.148,20.319,20.319,0,0,1-14.287,5.863,19.362,19.362,0,0,1-10.114-2.806c0-3.4-.033-6.17-.062-8.614a71.448,71.448,0,0,1,.244-10.193,9.022,9.022,0,0,1,2.5-5.167,9.762,9.762,0,0,1,7.4-3.346,10.755,10.755,0,0,1,7.153,2.76,9.833,9.833,0,0,1,3.227,7.371,11.178,11.178,0,0,1-.991,5.016,6.96,6.96,0,0,1-2.785,2.98c-2.1,1.245-5.133,1.8-9.824,1.8a.9.9,0,0,0-.254-.037c-.827,0-1.494,1.147-1.7,2.227-.164.851-.076,1.866.663,2.162a16.3,16.3,0,0,0,4.6.675,14.928,14.928,0,0,0,14.952-14.869,14.811,14.811,0,0,0-14.863-14.726c-8.011,0-14.678,6.292-14.863,14.026v14.284h-.046a17.768,17.768,0,0,1-3.7-6.132C35.425-1119.325,35.219-1119.874,34.389-1119.874Zm19.752-2.933h0c.527.519.964.953,1.315,1.3l.022.022c1.624,1.612,1.655,1.643,2.054,1.643a2.67,2.67,0,0,0,1.892-1.463,1.125,1.125,0,0,0-.264-1.306l-2.632-2.633,2.769-2.768a.969.969,0,0,0,.093-1.087,2.636,2.636,0,0,0-2-1.519.757.757,0,0,0-.557.217l-2.722,2.723c-.626-.633-1.108-1.126-1.494-1.523-1.356-1.39-1.409-1.444-1.776-1.444a3.144,3.144,0,0,0-2,1.687.812.812,0,0,0,.112.944l2.768,2.768c-.6.594-1.085,1.067-1.475,1.446-1.412,1.376-1.629,1.588-1.629,1.992a1.846,1.846,0,0,0,.738,1.2c.041.037.074.068.1.093a1.984,1.984,0,0,0,1.292.67h.034c.423,0,.45-.027,1.857-1.453l.008-.008c.387-.393.87-.881,1.493-1.5Zm.661-31.943a28.35,28.35,0,0,1,12.426,2.909,38.106,38.106,0,0,1,7.035,4.506,4.813,4.813,0,0,0,1.282.873,4.2,4.2,0,0,0,2.414-2.217,1.041,1.041,0,0,0-.239-1.251c-8.256-7.883-18.49-9.06-23.856-9.06a32.236,32.236,0,0,0-8.683,1.1c-2.181.633-3.569,1.435-3.712,2.145a4.912,4.912,0,0,0,.975,2.754,1.164,1.164,0,0,0,.865.455,1.044,1.044,0,0,0,.38-.075A31.233,31.233,0,0,1,54.8-1154.751Z" transform="translate(0 1180)" fill="#fff"/>
</svg>
