<svg xmlns="http://www.w3.org/2000/svg" width="100" height="100" viewBox="0 0 100 100">
  <path id="dribbble-square" d="M20.134,75.795a30.6,30.6,0,0,1,16.9-21.362A196.9,196.9,0,0,1,48.348,72.067a113.712,113.712,0,0,1-28.214,3.728ZM70.223,59.232A30.4,30.4,0,0,0,42.857,52.4,164.188,164.188,0,0,1,54.241,70.259C65.089,66.174,69.665,60.013,70.223,59.232ZM31.272,106.107a30.448,30.448,0,0,0,30.647,4.018A125.936,125.936,0,0,0,55.4,87c-12.3,4.2-20.937,12.589-24.129,19.107ZM53.326,81.955c-.759-1.741-1.607-3.46-2.478-5.179a111.7,111.7,0,0,1-31.339,4.33c0,.313-.022.625-.022.938a30.451,30.451,0,0,0,7.835,20.4c4.955-8.46,14.978-17.388,26-20.491Zm7.79,3.638a130.438,130.438,0,0,1,5.915,21.741,30.538,30.538,0,0,0,13.08-20.446A44.509,44.509,0,0,0,61.116,85.594Zm-4.531-10.8c1.071,2.188,1.853,3.973,2.679,5.982a71.1,71.1,0,0,1,21.25.982,30.215,30.215,0,0,0-6.9-19C72.969,63.629,67.857,70.17,56.585,74.79ZM100,42.714v78.571A10.717,10.717,0,0,1,89.286,132H10.714A10.717,10.717,0,0,1,0,121.286V42.714A10.717,10.717,0,0,1,10.714,32H89.286A10.717,10.717,0,0,1,100,42.714ZM85.714,82A35.714,35.714,0,1,0,50,117.714,35.762,35.762,0,0,0,85.714,82Z" transform="translate(0 -32)" fill="#fff"/>
</svg>
