<svg xmlns="http://www.w3.org/2000/svg" width="100" height="100" viewBox="0 0 100 100">
  <path id="facebook-square" d="M89.286,32H10.714A10.714,10.714,0,0,0,0,42.714v78.571A10.714,10.714,0,0,0,10.714,132H41.35V98H27.288V82H41.35V69.8c0-13.873,8.259-21.536,20.908-21.536a85.193,85.193,0,0,1,12.393,1.08V62.964h-6.98c-6.877,0-9.022,4.268-9.022,8.645V82H74L71.547,98H58.65v34H89.286A10.714,10.714,0,0,0,100,121.286V42.714A10.714,10.714,0,0,0,89.286,32Z" transform="translate(0 -32)" fill="#fff"/>
</svg>
