<svg xmlns="http://www.w3.org/2000/svg" width="100" height="100" viewBox="0 0 100 100">
  <path id="pinterest-square" d="M100,42.714v78.571A10.717,10.717,0,0,1,89.286,132H34.464c2.188-3.661,5-8.929,6.116-13.237C41.25,116.2,44,105.728,44,105.728c1.786,3.415,7.009,6.295,12.567,6.295C73.1,112.022,85,96.821,85,77.938c0-18.1-14.777-31.652-33.795-31.652C27.545,46.286,15,62.156,15,79.455c0,8.036,4.286,18.036,11.116,21.228,1.049.491,1.585.268,1.83-.737.179-.759,1.116-4.487,1.518-6.205a1.617,1.617,0,0,0-.379-1.562A21.366,21.366,0,0,1,25,79.679c0-12.1,9.152-23.795,24.754-23.795,13.46,0,22.9,9.174,22.9,22.3,0,14.821-7.478,25.089-17.232,25.089-5.379,0-9.4-4.442-8.125-9.911,1.54-6.518,4.531-13.549,4.531-18.259,0-11.83-16.853-10.2-16.853,5.58a20.029,20.029,0,0,0,1.629,8.147C29.6,118.473,28.549,118.853,30,131.821l.491.179H10.714A10.717,10.717,0,0,1,0,121.286V42.714A10.717,10.717,0,0,1,10.714,32H89.286A10.717,10.717,0,0,1,100,42.714Z" transform="translate(0 -32)" fill="#fff"/>
</svg>
