<svg xmlns="http://www.w3.org/2000/svg" width="100" height="100" viewBox="0 0 100 100">
  <path id="tumblr-square" d="M89.286,32H10.714A10.717,10.717,0,0,0,0,42.714v78.571A10.717,10.717,0,0,0,10.714,132H89.286A10.717,10.717,0,0,0,100,121.286V42.714A10.717,10.717,0,0,0,89.286,32ZM70.915,113.295c-1.9,2.031-6.964,4.42-13.594,4.42-16.853,0-20.513-12.388-20.513-19.621V78H30.179a1.391,1.391,0,0,1-1.384-1.384V67.134A2.354,2.354,0,0,1,30.379,64.9c8.661-3.058,11.362-10.6,11.763-16.339.112-1.54.915-2.277,2.232-2.277h9.888a1.391,1.391,0,0,1,1.384,1.384V63.741H67.232a1.391,1.391,0,0,1,1.384,1.384V76.531a1.391,1.391,0,0,1-1.384,1.384H55.6V96.509c0,4.777,3.3,7.478,9.487,5a2.99,2.99,0,0,1,1.786-.312A1.464,1.464,0,0,1,67.9,102.29l3.08,8.973C71.205,111.978,71.429,112.759,70.915,113.295Z" transform="translate(0 -32)" fill="#fff"/>
</svg>
