<svg xmlns="http://www.w3.org/2000/svg" width="100" height="100" viewBox="0 0 100 100">
  <path id="twitter-square" d="M89.286,32H10.714A10.717,10.717,0,0,0,0,42.714v78.571A10.717,10.717,0,0,0,10.714,132H89.286A10.717,10.717,0,0,0,100,121.286V42.714A10.717,10.717,0,0,0,89.286,32ZM78.371,67.446c.045.625.045,1.272.045,1.9C78.415,88.7,63.683,111,36.763,111a41.46,41.46,0,0,1-22.478-6.562,30.842,30.842,0,0,0,3.527.179,29.351,29.351,0,0,0,18.17-6.25A14.659,14.659,0,0,1,22.3,88.205a15.778,15.778,0,0,0,6.607-.268A14.641,14.641,0,0,1,17.188,73.563v-.179a14.63,14.63,0,0,0,6.607,1.853,14.609,14.609,0,0,1-6.518-12.187,14.457,14.457,0,0,1,1.987-7.388A41.568,41.568,0,0,0,49.442,70.973,14.671,14.671,0,0,1,74.42,57.6a28.687,28.687,0,0,0,9.286-3.527,14.6,14.6,0,0,1-6.429,8.058,29.133,29.133,0,0,0,8.438-2.277A30.814,30.814,0,0,1,78.371,67.446Z" transform="translate(0 -32)" fill="#fff"/>
</svg>
