<svg xmlns="http://www.w3.org/2000/svg" width="100" height="100" viewBox="0 0 100 100">
  <path id="vimeo-square" d="M89.286,32H10.714A10.717,10.717,0,0,0,0,42.714v78.571A10.717,10.717,0,0,0,10.714,132H89.286A10.717,10.717,0,0,0,100,121.286V42.714A10.717,10.717,0,0,0,89.286,32ZM85.67,65.393Q85.2,75.806,71.094,93.942q-14.565,18.917-24.643,18.929c-4.174,0-7.679-3.839-10.558-11.518-5.625-20.6-8.013-32.679-12.656-32.679-.536,0-2.411,1.116-5.6,3.371l-3.348-4.33c8.237-7.232,16.094-15.268,21-15.714q8.337-.8,10.268,11.406c4.576,28.929,6.607,33.3,14.911,20.2,2.991-4.732,4.6-8.3,4.8-10.781.759-7.321-5.714-6.83-10.089-4.955Q60.435,50.627,75.29,51.107c7.344.223,10.8,5,10.379,14.286Z" transform="translate(0 -32)" fill="#fff"/>
</svg>
