<svg xmlns="http://www.w3.org/2000/svg" width="100" height="100" viewBox="0 0 100 100">
  <path id="vk-square" d="M90-1080H10a10.011,10.011,0,0,1-10-10v-80a10.011,10.011,0,0,1,10-10H90a10.011,10.011,0,0,1,10,10v80A10.011,10.011,0,0,1,90-1080Zm-31.012-40.812c1.143,0,3.234.55,8.173,5.3,1.659,1.659,2.912,3.052,3.919,4.172,2.4,2.671,3.5,3.889,5.688,3.889h8.2a3.154,3.154,0,0,0,2.636-.977,2.756,2.756,0,0,0,.2-2.5c-1.26-3.925-8.309-11.131-11.32-14.208l-.006-.007c-.7-.712-1.156-1.182-1.247-1.31-1.207-1.553-.872-2.241,0-3.648.088-.082,10.044-14.193,11.056-18.879a2.448,2.448,0,0,0-.146-2.2,2.777,2.777,0,0,0-2.332-.817h-8.2a3.529,3.529,0,0,0-3.564,2.326c-.011.026-1.073,2.6-2.826,5.914a56.969,56.969,0,0,1-7.254,10.863c-1.955,1.955-2.814,2.52-3.829,2.52-.526,0-1.309-.627-1.309-2.354v-16.248c0-2.174-.648-3.021-2.311-3.021H41.626a1.968,1.968,0,0,0-2.089,1.88,3.165,3.165,0,0,0,.978,1.968,9.214,9.214,0,0,1,2.28,6.037v12.085c0,2.663-.489,3.132-1.517,3.132-1.355,0-3.718-2.457-6.321-6.572a76.215,76.215,0,0,1-7.24-15.342c-.768-2.161-1.519-3.189-3.7-3.189h-8.2a3.048,3.048,0,0,0-2.283.7,2.208,2.208,0,0,0-.529,1.622c0,2.419,3.072,13.365,12.963,27.219,6.548,9.4,15.9,15.009,25.02,15.009,5.441,0,5.862-1.322,5.862-3.189,0-1.4-.011-2.6-.02-3.662-.035-3.873-.049-5.476.583-6.113A2.14,2.14,0,0,1,58.988-1120.812Z" transform="translate(0 1180)" fill="#fff"/>
</svg>
