<svg xmlns="http://www.w3.org/2000/svg" width="100" height="100" viewBox="0 0 100 100">
  <path id="xing-square" d="M89.286,32H10.714A10.717,10.717,0,0,0,0,42.714v78.571A10.717,10.717,0,0,0,10.714,132H89.286A10.717,10.717,0,0,0,100,121.286V42.714A10.717,10.717,0,0,0,89.286,32ZM31.339,96.33h-10.4a1.5,1.5,0,0,1-1.339-2.3l11-19.353c.022,0,.022-.022,0-.045L23.594,62.58a1.421,1.421,0,0,1,1.339-2.254h10.4a3.322,3.322,0,0,1,2.879,1.942l7.121,12.344q-.435.77-11.183,19.688c-.781,1.384-1.719,2.031-2.813,2.031Zm49.04-47.79L57.433,88.875v.045l14.621,26.563a1.43,1.43,0,0,1-1.339,2.254h-10.4a3.2,3.2,0,0,1-2.879-1.942L42.7,88.942q.77-1.373,23.08-40.692a3.2,3.2,0,0,1,2.79-1.942H79.04a1.426,1.426,0,0,1,1.339,2.232Z" transform="translate(0 -32)" fill="#fff"/>
</svg>
