<svg xmlns="http://www.w3.org/2000/svg" width="100" height="100" viewBox="0 0 100 100">
  <path id="youtube-square" d="M41.7,69.969l21.25,12.076L41.7,94.121ZM100,42.714v78.571A10.717,10.717,0,0,1,89.286,132H10.714A10.717,10.717,0,0,1,0,121.286V42.714A10.717,10.717,0,0,1,10.714,32H89.286A10.717,10.717,0,0,1,100,42.714ZM90.625,82.067s0-13.3-1.7-19.687a10.189,10.189,0,0,0-7.187-7.232C75.424,53.429,50,53.429,50,53.429s-25.424,0-31.741,1.719a10.189,10.189,0,0,0-7.187,7.232c-1.7,6.362-1.7,19.687-1.7,19.687s0,13.3,1.7,19.688a10.042,10.042,0,0,0,7.187,7.121c6.317,1.7,31.741,1.7,31.741,1.7s25.424,0,31.741-1.719a10.042,10.042,0,0,0,7.188-7.121c1.7-6.362,1.7-19.665,1.7-19.665Z" transform="translate(0 -32)" fill="#fff"/>
</svg>
